<mxfile host="65bd71144e">
    <diagram id="KKcilhX_-PsfVYI2Bg5r" name="Page-1">
        <mxGraphModel dx="811" dy="561" grid="1" gridSize="10" guides="1" tooltips="1" connect="1" arrows="1" fold="1" page="1" pageScale="1" pageWidth="827" pageHeight="1169" math="0" shadow="0">
            <root>
                <mxCell id="0"/>
                <mxCell id="1" parent="0"/>
                <mxCell id="24" value="" style="rounded=0;whiteSpace=wrap;html=1;fillColor=none;strokeColor=#660000;strokeWidth=3;sketch=1;" parent="1" vertex="1">
                    <mxGeometry x="300" y="90" width="60" height="180" as="geometry"/>
                </mxCell>
                <mxCell id="35" value="&lt;font style=&quot;font-size: 20px&quot;&gt;b1&lt;/font&gt;" style="rounded=1;whiteSpace=wrap;html=1;fontFamily=Courier New;fontSize=24;strokeWidth=3;glass=0;shadow=0;sketch=1;strokeColor=#CCCCCC;" parent="1" vertex="1">
                    <mxGeometry x="370" y="160" width="40" height="40" as="geometry"/>
                </mxCell>
                <mxCell id="36" value="&lt;font style=&quot;font-size: 20px&quot;&gt;b2&lt;/font&gt;" style="rounded=1;whiteSpace=wrap;html=1;fontFamily=Courier New;fontSize=24;strokeWidth=3;glass=0;shadow=0;sketch=1;strokeColor=#CCCCCC;" parent="1" vertex="1">
                    <mxGeometry x="430" y="160" width="40" height="40" as="geometry"/>
                </mxCell>
                <mxCell id="37" value="&lt;font style=&quot;font-size: 20px&quot;&gt;b3&lt;/font&gt;" style="rounded=1;whiteSpace=wrap;html=1;fontFamily=Courier New;fontSize=24;strokeWidth=3;glass=0;shadow=0;sketch=1;strokeColor=#CCCCCC;" parent="1" vertex="1">
                    <mxGeometry x="490" y="160" width="40" height="40" as="geometry"/>
                </mxCell>
                <mxCell id="18" value="&lt;b&gt;zip(A, B, C):&lt;/b&gt;" style="text;html=1;strokeColor=none;fillColor=none;align=right;verticalAlign=middle;whiteSpace=wrap;rounded=0;shadow=0;glass=0;sketch=1;fontFamily=Courier New;fontSize=20;" parent="1" vertex="1">
                    <mxGeometry x="120" y="150" width="160" height="70" as="geometry"/>
                </mxCell>
                <mxCell id="3" value="&lt;font style=&quot;font-size: 20px&quot;&gt;a0&lt;/font&gt;" style="rounded=1;whiteSpace=wrap;html=1;fontFamily=Courier New;fontSize=24;strokeWidth=3;glass=0;shadow=0;sketch=1;strokeColor=#CCCCCC;" parent="1" vertex="1">
                    <mxGeometry x="310" y="100" width="40" height="40" as="geometry"/>
                </mxCell>
                <mxCell id="4" value="&lt;font style=&quot;font-size: 20px&quot;&gt;a1&lt;/font&gt;" style="rounded=1;whiteSpace=wrap;html=1;fontFamily=Courier New;fontSize=24;strokeWidth=3;glass=0;shadow=0;sketch=1;strokeColor=#CCCCCC;" parent="1" vertex="1">
                    <mxGeometry x="370" y="100" width="40" height="40" as="geometry"/>
                </mxCell>
                <mxCell id="5" value="&lt;font style=&quot;font-size: 20px&quot;&gt;a2&lt;/font&gt;" style="rounded=1;whiteSpace=wrap;html=1;fontFamily=Courier New;fontSize=24;strokeWidth=3;glass=0;shadow=0;sketch=1;strokeColor=#CCCCCC;" parent="1" vertex="1">
                    <mxGeometry x="430" y="100" width="40" height="40" as="geometry"/>
                </mxCell>
                <mxCell id="19" value="&lt;font style=&quot;font-size: 20px&quot;&gt;a3&lt;/font&gt;" style="rounded=1;whiteSpace=wrap;html=1;fontFamily=Courier New;fontSize=24;strokeWidth=3;glass=0;shadow=0;sketch=1;strokeColor=#CCCCCC;" parent="1" vertex="1">
                    <mxGeometry x="490" y="100" width="40" height="40" as="geometry"/>
                </mxCell>
                <mxCell id="20" value="&lt;font style=&quot;font-size: 20px&quot;&gt;b0&lt;/font&gt;" style="rounded=1;whiteSpace=wrap;html=1;fontFamily=Courier New;fontSize=24;strokeWidth=3;glass=0;shadow=0;sketch=1;strokeColor=#CCCCCC;" parent="1" vertex="1">
                    <mxGeometry x="310" y="160" width="40" height="40" as="geometry"/>
                </mxCell>
                <mxCell id="32" value="" style="endArrow=none;html=1;strokeWidth=2;" parent="1" edge="1">
                    <mxGeometry width="50" height="50" relative="1" as="geometry">
                        <mxPoint x="540" y="270" as="sourcePoint"/>
                        <mxPoint x="540" y="80" as="targetPoint"/>
                    </mxGeometry>
                </mxCell>
                <mxCell id="33" value="&lt;font style=&quot;font-size: 20px&quot;&gt;a4&lt;/font&gt;" style="rounded=1;whiteSpace=wrap;html=1;fontFamily=Courier New;fontSize=24;strokeWidth=3;glass=0;shadow=0;sketch=1;strokeColor=#CCCCCC;opacity=30;textOpacity=30;" parent="1" vertex="1">
                    <mxGeometry x="550" y="100" width="40" height="40" as="geometry"/>
                </mxCell>
                <mxCell id="34" value="&lt;font style=&quot;font-size: 20px&quot;&gt;a5&lt;/font&gt;" style="rounded=1;whiteSpace=wrap;html=1;fontFamily=Courier New;fontSize=24;strokeWidth=3;glass=0;shadow=0;sketch=1;strokeColor=#CCCCCC;opacity=30;textOpacity=30;" parent="1" vertex="1">
                    <mxGeometry x="610" y="100" width="40" height="40" as="geometry"/>
                </mxCell>
                <mxCell id="40" value="&lt;font style=&quot;font-size: 20px&quot;&gt;c1&lt;/font&gt;" style="rounded=1;whiteSpace=wrap;html=1;fontFamily=Courier New;fontSize=24;strokeWidth=3;glass=0;shadow=0;sketch=1;strokeColor=#CCCCCC;" vertex="1" parent="1">
                    <mxGeometry x="370" y="220" width="40" height="40" as="geometry"/>
                </mxCell>
                <mxCell id="41" value="&lt;font style=&quot;font-size: 20px&quot;&gt;c2&lt;/font&gt;" style="rounded=1;whiteSpace=wrap;html=1;fontFamily=Courier New;fontSize=24;strokeWidth=3;glass=0;shadow=0;sketch=1;strokeColor=#CCCCCC;" vertex="1" parent="1">
                    <mxGeometry x="430" y="220" width="40" height="40" as="geometry"/>
                </mxCell>
                <mxCell id="42" value="&lt;font style=&quot;font-size: 20px&quot;&gt;c3&lt;/font&gt;" style="rounded=1;whiteSpace=wrap;html=1;fontFamily=Courier New;fontSize=24;strokeWidth=3;glass=0;shadow=0;sketch=1;strokeColor=#CCCCCC;" vertex="1" parent="1">
                    <mxGeometry x="490" y="220" width="40" height="40" as="geometry"/>
                </mxCell>
                <mxCell id="43" value="&lt;font style=&quot;font-size: 20px&quot;&gt;c0&lt;/font&gt;" style="rounded=1;whiteSpace=wrap;html=1;fontFamily=Courier New;fontSize=24;strokeWidth=3;glass=0;shadow=0;sketch=1;strokeColor=#CCCCCC;" vertex="1" parent="1">
                    <mxGeometry x="310" y="220" width="40" height="40" as="geometry"/>
                </mxCell>
                <mxCell id="44" value="&lt;font style=&quot;font-size: 20px&quot;&gt;c4&lt;/font&gt;" style="rounded=1;whiteSpace=wrap;html=1;fontFamily=Courier New;fontSize=24;strokeWidth=3;glass=0;shadow=0;sketch=1;strokeColor=#CCCCCC;textOpacity=30;opacity=30;" vertex="1" parent="1">
                    <mxGeometry x="550" y="220" width="40" height="40" as="geometry"/>
                </mxCell>
            </root>
        </mxGraphModel>
    </diagram>
</mxfile>